<?xml version="1.0" standalone="no"?>
<!DOCTYPE svg PUBLIC "-//W3C//DTD SVG 1.1//EN"
"http://www.w3.org/Graphics/SVG/1.1/DTD/svg11.dtd">
<svg height="200" version="1.1" width="1872.0" xmlns="http://www.w3.org/2000/svg"><text style="font-family:sans-serif;font-size:15px;text-anchor:end;alignment-baseline:hanging;transform:translate(29px, 87px);" x="0" y="0">1</text><text style="font-family:sans-serif;font-size:15px;text-anchor:end;alignment-baseline:hanging;transform:translate(29px, 50px);" x="0" y="0">4</text><text style="font-family:sans-serif;font-size:15px;text-anchor:end;alignment-baseline:hanging;transform:translate(29px, 0px);" x="0" y="0">8</text><text style="font-family:sans-serif;font-size:15px;text-anchor:middle;transform:translate(11px, 50px) rotate(-90deg)" x="0" y="0">units</text><rect fill="#B6B6F2" height="100.0" width="1797.0" x="32" y="0.0" /><rect fill="#4B4CBF" height="100.0" width="12" x="32" y="0.0" /><text style="font-family:sans-serif;font-size:12px;text-anchor:end;transform:translate(44px, 108px) rotate(-45deg);" x="0" y="0">airplane</text><rect fill="#4B4CBF" height="75.0" width="12" x="47.0" y="25.0" /><text style="font-family:sans-serif;font-size:12px;text-anchor:end;transform:translate(59px, 108px) rotate(-45deg);" x="0" y="0">greenhouse</text><rect fill="#4B4CBF" height="75.0" width="12" x="62.0" y="25.0" /><text style="font-family:sans-serif;font-size:12px;text-anchor:end;transform:translate(74px, 108px) rotate(-45deg);" x="0" y="0">cradle</text><rect fill="#4B4CBF" height="62.5" width="12" x="77.0" y="37.5" /><text style="font-family:sans-serif;font-size:12px;text-anchor:end;transform:translate(89px, 108px) rotate(-45deg);" x="0" y="0">horse</text><rect fill="#4B4CBF" height="62.5" width="12" x="92.0" y="37.5" /><text style="font-family:sans-serif;font-size:12px;text-anchor:end;transform:translate(104px, 108px) rotate(-45deg);" x="0" y="0">tent</text><rect fill="#4B4CBF" height="62.5" width="12" x="107.0" y="37.5" /><text style="font-family:sans-serif;font-size:12px;text-anchor:end;transform:translate(119px, 108px) rotate(-45deg);" x="0" y="0">telephone booth</text><rect fill="#4B4CBF" height="50.0" width="12" x="122.0" y="50.0" /><text style="font-family:sans-serif;font-size:12px;text-anchor:end;transform:translate(134px, 108px) rotate(-45deg);" x="0" y="0">bus</text><rect fill="#4B4CBF" height="50.0" width="12" x="137.0" y="50.0" /><text style="font-family:sans-serif;font-size:12px;text-anchor:end;transform:translate(149px, 108px) rotate(-45deg);" x="0" y="0">rubbish</text><rect fill="#4B4CBF" height="50.0" width="12" x="152.0" y="50.0" /><text style="font-family:sans-serif;font-size:12px;text-anchor:end;transform:translate(164px, 108px) rotate(-45deg);" x="0" y="0">pool table</text><rect fill="#4B4CBF" height="50.0" width="12" x="167.0" y="50.0" /><text style="font-family:sans-serif;font-size:12px;text-anchor:end;transform:translate(179px, 108px) rotate(-45deg);" x="0" y="0">bowling alley</text><rect fill="#4B4CBF" height="50.0" width="12" x="182.0" y="50.0" /><text style="font-family:sans-serif;font-size:12px;text-anchor:end;transform:translate(194px, 108px) rotate(-45deg);" x="0" y="0">water tower</text><rect fill="#4B4CBF" height="50.0" width="12" x="197.0" y="50.0" /><text style="font-family:sans-serif;font-size:12px;text-anchor:end;transform:translate(209px, 108px) rotate(-45deg);" x="0" y="0">bridge</text><rect fill="#4B4CBF" height="50.0" width="12" x="212.0" y="50.0" /><text style="font-family:sans-serif;font-size:12px;text-anchor:end;transform:translate(224px, 108px) rotate(-45deg);" x="0" y="0">washer</text><rect fill="#4B4CBF" height="50.0" width="12" x="227.0" y="50.0" /><text style="font-family:sans-serif;font-size:12px;text-anchor:end;transform:translate(239px, 108px) rotate(-45deg);" x="0" y="0">sink</text><rect fill="#4B4CBF" height="50.0" width="12" x="242.0" y="50.0" /><text style="font-family:sans-serif;font-size:12px;text-anchor:end;transform:translate(254px, 108px) rotate(-45deg);" x="0" y="0">lighthouse</text><rect fill="#4B4CBF" height="50.0" width="12" x="257.0" y="50.0" /><text style="font-family:sans-serif;font-size:12px;text-anchor:end;transform:translate(269px, 108px) rotate(-45deg);" x="0" y="0">aqueduct</text><rect fill="#4B4CBF" height="50.0" width="12" x="272.0" y="50.0" /><text style="font-family:sans-serif;font-size:12px;text-anchor:end;transform:translate(284px, 108px) rotate(-45deg);" x="0" y="0">controls</text><rect fill="#4B4CBF" height="37.5" width="12" x="287.0" y="62.5" /><text style="font-family:sans-serif;font-size:12px;text-anchor:end;transform:translate(299px, 108px) rotate(-45deg);" x="0" y="0">bed</text><rect fill="#4B4CBF" height="37.5" width="12" x="302.0" y="62.5" /><text style="font-family:sans-serif;font-size:12px;text-anchor:end;transform:translate(314px, 108px) rotate(-45deg);" x="0" y="0">lockers</text><rect fill="#4B4CBF" height="37.5" width="12" x="317.0" y="62.5" /><text style="font-family:sans-serif;font-size:12px;text-anchor:end;transform:translate(329px, 108px) rotate(-45deg);" x="0" y="0">windmill</text><rect fill="#4B4CBF" height="37.5" width="12" x="332.0" y="62.5" /><text style="font-family:sans-serif;font-size:12px;text-anchor:end;transform:translate(344px, 108px) rotate(-45deg);" x="0" y="0">house</text><rect fill="#4B4CBF" height="37.5" width="12" x="347.0" y="62.5" /><text style="font-family:sans-serif;font-size:12px;text-anchor:end;transform:translate(359px, 108px) rotate(-45deg);" x="0" y="0">aquarium</text><rect fill="#4B4CBF" height="37.5" width="12" x="362.0" y="62.5" /><text style="font-family:sans-serif;font-size:12px;text-anchor:end;transform:translate(374px, 108px) rotate(-45deg);" x="0" y="0">gravestone</text><rect fill="#4B4CBF" height="37.5" width="12" x="377.0" y="62.5" /><text style="font-family:sans-serif;font-size:12px;text-anchor:end;transform:translate(389px, 108px) rotate(-45deg);" x="0" y="0">arcade machine</text><rect fill="#4B4CBF" height="37.5" width="12" x="392.0" y="62.5" /><text style="font-family:sans-serif;font-size:12px;text-anchor:end;transform:translate(404px, 108px) rotate(-45deg);" x="0" y="0">seat</text><rect fill="#4B4CBF" height="37.5" width="12" x="407.0" y="62.5" /><text style="font-family:sans-serif;font-size:12px;text-anchor:end;transform:translate(419px, 108px) rotate(-45deg);" x="0" y="0">pottedplant</text><rect fill="#4B4CBF" height="37.5" width="12" x="422.0" y="62.5" /><text style="font-family:sans-serif;font-size:12px;text-anchor:end;transform:translate(434px, 108px) rotate(-45deg);" x="0" y="0">ice rink</text><rect fill="#4B4CBF" height="37.5" width="12" x="437.0" y="62.5" /><text style="font-family:sans-serif;font-size:12px;text-anchor:end;transform:translate(449px, 108px) rotate(-45deg);" x="0" y="0">toilet</text><rect fill="#4B4CBF" height="25.0" width="12" x="452.0" y="75.0" /><text style="font-family:sans-serif;font-size:12px;text-anchor:end;transform:translate(464px, 108px) rotate(-45deg);" x="0" y="0">car</text><rect fill="#4B4CBF" height="25.0" width="12" x="467.0" y="75.0" /><text style="font-family:sans-serif;font-size:12px;text-anchor:end;transform:translate(479px, 108px) rotate(-45deg);" x="0" y="0">dog</text><rect fill="#4B4CBF" height="25.0" width="12" x="482.0" y="75.0" /><text style="font-family:sans-serif;font-size:12px;text-anchor:end;transform:translate(494px, 108px) rotate(-45deg);" x="0" y="0">bicycle</text><rect fill="#4B4CBF" height="25.0" width="12" x="497.0" y="75.0" /><text style="font-family:sans-serif;font-size:12px;text-anchor:end;transform:translate(509px, 108px) rotate(-45deg);" x="0" y="0">temple</text><rect fill="#4B4CBF" height="25.0" width="12" x="512.0" y="75.0" /><text style="font-family:sans-serif;font-size:12px;text-anchor:end;transform:translate(524px, 108px) rotate(-45deg);" x="0" y="0">water</text><rect fill="#4B4CBF" height="25.0" width="12" x="527.0" y="75.0" /><text style="font-family:sans-serif;font-size:12px;text-anchor:end;transform:translate(539px, 108px) rotate(-45deg);" x="0" y="0">book</text><rect fill="#4B4CBF" height="25.0" width="12" x="542.0" y="75.0" /><text style="font-family:sans-serif;font-size:12px;text-anchor:end;transform:translate(554px, 108px) rotate(-45deg);" x="0" y="0">swimming pool</text><rect fill="#4B4CBF" height="25.0" width="12" x="557.0" y="75.0" /><text style="font-family:sans-serif;font-size:12px;text-anchor:end;transform:translate(569px, 108px) rotate(-45deg);" x="0" y="0">carousel</text><rect fill="#4B4CBF" height="25.0" width="12" x="572.0" y="75.0" /><text style="font-family:sans-serif;font-size:12px;text-anchor:end;transform:translate(584px, 108px) rotate(-45deg);" x="0" y="0">sandbox</text><rect fill="#4B4CBF" height="25.0" width="12" x="587.0" y="75.0" /><text style="font-family:sans-serif;font-size:12px;text-anchor:end;transform:translate(599px, 108px) rotate(-45deg);" x="0" y="0">court</text><rect fill="#4B4CBF" height="25.0" width="12" x="602.0" y="75.0" /><text style="font-family:sans-serif;font-size:12px;text-anchor:end;transform:translate(614px, 108px) rotate(-45deg);" x="0" y="0">dam</text><rect fill="#4B4CBF" height="25.0" width="12" x="617.0" y="75.0" /><text style="font-family:sans-serif;font-size:12px;text-anchor:end;transform:translate(629px, 108px) rotate(-45deg);" x="0" y="0">pitch</text><rect fill="#4B4CBF" height="25.0" width="12" x="632.0" y="75.0" /><text style="font-family:sans-serif;font-size:12px;text-anchor:end;transform:translate(644px, 108px) rotate(-45deg);" x="0" y="0">trench</text><rect fill="#4B4CBF" height="25.0" width="12" x="647.0" y="75.0" /><text style="font-family:sans-serif;font-size:12px;text-anchor:end;transform:translate(659px, 108px) rotate(-45deg);" x="0" y="0">vineyard</text><rect fill="#4B4CBF" height="25.0" width="12" x="662.0" y="75.0" /><text style="font-family:sans-serif;font-size:12px;text-anchor:end;transform:translate(674px, 108px) rotate(-45deg);" x="0" y="0">island</text><rect fill="#4B4CBF" height="25.0" width="12" x="677.0" y="75.0" /><text style="font-family:sans-serif;font-size:12px;text-anchor:end;transform:translate(689px, 108px) rotate(-45deg);" x="0" y="0">playground</text><rect fill="#4B4CBF" height="25.0" width="12" x="692.0" y="75.0" /><text style="font-family:sans-serif;font-size:12px;text-anchor:end;transform:translate(704px, 108px) rotate(-45deg);" x="0" y="0">iceberg</text><rect fill="#4B4CBF" height="25.0" width="12" x="707.0" y="75.0" /><text style="font-family:sans-serif;font-size:12px;text-anchor:end;transform:translate(719px, 108px) rotate(-45deg);" x="0" y="0">counter</text><rect fill="#4B4CBF" height="25.0" width="12" x="722.0" y="75.0" /><text style="font-family:sans-serif;font-size:12px;text-anchor:end;transform:translate(734px, 108px) rotate(-45deg);" x="0" y="0">stove</text><rect fill="#4B4CBF" height="25.0" width="12" x="737.0" y="75.0" /><text style="font-family:sans-serif;font-size:12px;text-anchor:end;transform:translate(749px, 108px) rotate(-45deg);" x="0" y="0">helicopter</text><rect fill="#4B4CBF" height="25.0" width="12" x="752.0" y="75.0" /><text style="font-family:sans-serif;font-size:12px;text-anchor:end;transform:translate(764px, 108px) rotate(-45deg);" x="0" y="0">bandstand</text><rect fill="#4B4CBF" height="25.0" width="12" x="767.0" y="75.0" /><text style="font-family:sans-serif;font-size:12px;text-anchor:end;transform:translate(779px, 108px) rotate(-45deg);" x="0" y="0">badlands</text><rect fill="#4B4CBF" height="12.5" width="12" x="782.0" y="87.5" /><text style="font-family:sans-serif;font-size:12px;text-anchor:end;transform:translate(794px, 108px) rotate(-45deg);" x="0" y="0">train</text><rect fill="#4B4CBF" height="12.5" width="12" x="797.0" y="87.5" /><text style="font-family:sans-serif;font-size:12px;text-anchor:end;transform:translate(809px, 108px) rotate(-45deg);" x="0" y="0">fruit</text><rect fill="#4B4CBF" height="12.5" width="12" x="812.0" y="87.5" /><text style="font-family:sans-serif;font-size:12px;text-anchor:end;transform:translate(824px, 108px) rotate(-45deg);" x="0" y="0">tvmonitor</text><rect fill="#4B4CBF" height="12.5" width="12" x="827.0" y="87.5" /><text style="font-family:sans-serif;font-size:12px;text-anchor:end;transform:translate(839px, 108px) rotate(-45deg);" x="0" y="0">stairway</text><rect fill="#4B4CBF" height="12.5" width="12" x="842.0" y="87.5" /><text style="font-family:sans-serif;font-size:12px;text-anchor:end;transform:translate(854px, 108px) rotate(-45deg);" x="0" y="0">apparel</text><rect fill="#4B4CBF" height="12.5" width="12" x="857.0" y="87.5" /><text style="font-family:sans-serif;font-size:12px;text-anchor:end;transform:translate(869px, 108px) rotate(-45deg);" x="0" y="0">sea</text><rect fill="#4B4CBF" height="12.5" width="12" x="872.0" y="87.5" /><text style="font-family:sans-serif;font-size:12px;text-anchor:end;transform:translate(884px, 108px) rotate(-45deg);" x="0" y="0">fountain</text><rect fill="#4B4CBF" height="12.5" width="12" x="887.0" y="87.5" /><text style="font-family:sans-serif;font-size:12px;text-anchor:end;transform:translate(899px, 108px) rotate(-45deg);" x="0" y="0">case</text><rect fill="#4B4CBF" height="12.5" width="12" x="902.0" y="87.5" /><text style="font-family:sans-serif;font-size:12px;text-anchor:end;transform:translate(914px, 108px) rotate(-45deg);" x="0" y="0">painting</text><rect fill="#4B4CBF" height="12.5" width="12" x="917.0" y="87.5" /><text style="font-family:sans-serif;font-size:12px;text-anchor:end;transform:translate(929px, 108px) rotate(-45deg);" x="0" y="0">altar</text><rect fill="#4B4CBF" height="12.5" width="12" x="932.0" y="87.5" /><text style="font-family:sans-serif;font-size:12px;text-anchor:end;transform:translate(944px, 108px) rotate(-45deg);" x="0" y="0">meat</text><rect fill="#4B4CBF" height="12.5" width="12" x="947.0" y="87.5" /><text style="font-family:sans-serif;font-size:12px;text-anchor:end;transform:translate(959px, 108px) rotate(-45deg);" x="0" y="0">flower</text><rect fill="#4B4CBF" height="12.5" width="12" x="962.0" y="87.5" /><text style="font-family:sans-serif;font-size:12px;text-anchor:end;transform:translate(974px, 108px) rotate(-45deg);" x="0" y="0">bottle</text><rect fill="#4B4CBF" height="12.5" width="12" x="977.0" y="87.5" /><text style="font-family:sans-serif;font-size:12px;text-anchor:end;transform:translate(989px, 108px) rotate(-45deg);" x="0" y="0">guitar</text><rect fill="#4B4CBF" height="12.5" width="12" x="992.0" y="87.5" /><text style="font-family:sans-serif;font-size:12px;text-anchor:end;transform:translate(1004px, 108px) rotate(-45deg);" x="0" y="0">sofa</text><rect fill="#4B4CBF" height="12.5" width="12" x="1007.0" y="87.5" /><text style="font-family:sans-serif;font-size:12px;text-anchor:end;transform:translate(1019px, 108px) rotate(-45deg);" x="0" y="0">hedge</text><rect fill="#4B4CBF" height="12.5" width="12" x="1022.0" y="87.5" /><text style="font-family:sans-serif;font-size:12px;text-anchor:end;transform:translate(1034px, 108px) rotate(-45deg);" x="0" y="0">table</text><rect fill="#4B4CBF" height="12.5" width="12" x="1037.0" y="87.5" /><text style="font-family:sans-serif;font-size:12px;text-anchor:end;transform:translate(1049px, 108px) rotate(-45deg);" x="0" y="0">computer</text><rect fill="#4B4CBF" height="12.5" width="12" x="1052.0" y="87.5" /><text style="font-family:sans-serif;font-size:12px;text-anchor:end;transform:translate(1064px, 108px) rotate(-45deg);" x="0" y="0">waterfall</text><rect fill="#4B4CBF" height="12.5" width="12" x="1067.0" y="87.5" /><text style="font-family:sans-serif;font-size:12px;text-anchor:end;transform:translate(1079px, 108px) rotate(-45deg);" x="0" y="0">road</text><rect fill="#4B4CBF" height="12.5" width="12" x="1082.0" y="87.5" /><text style="font-family:sans-serif;font-size:12px;text-anchor:end;transform:translate(1094px, 108px) rotate(-45deg);" x="0" y="0">tree</text><rect fill="#4B4CBF" height="12.5" width="12" x="1097.0" y="87.5" /><text style="font-family:sans-serif;font-size:12px;text-anchor:end;transform:translate(1109px, 108px) rotate(-45deg);" x="0" y="0">ice</text><rect fill="#4B4CBF" height="12.5" width="12" x="1112.0" y="87.5" /><text style="font-family:sans-serif;font-size:12px;text-anchor:end;transform:translate(1124px, 108px) rotate(-45deg);" x="0" y="0">boat</text><rect fill="#4B4CBF" height="12.5" width="12" x="1127.0" y="87.5" /><text style="font-family:sans-serif;font-size:12px;text-anchor:end;transform:translate(1139px, 108px) rotate(-45deg);" x="0" y="0">chair</text><rect fill="#4B4CBF" height="12.5" width="12" x="1142.0" y="87.5" /><text style="font-family:sans-serif;font-size:12px;text-anchor:end;transform:translate(1154px, 108px) rotate(-45deg);" x="0" y="0">instrument panel</text><rect fill="#4B4CBF" height="12.5" width="12" x="1157.0" y="87.5" /><text style="font-family:sans-serif;font-size:12px;text-anchor:end;transform:translate(1169px, 108px) rotate(-45deg);" x="0" y="0">hot tub</text><rect fill="#4B4CBF" height="12.5" width="12" x="1172.0" y="87.5" /><text style="font-family:sans-serif;font-size:12px;text-anchor:end;transform:translate(1184px, 108px) rotate(-45deg);" x="0" y="0">snow</text><rect fill="#4B4CBF" height="12.5" width="12" x="1187.0" y="87.5" /><text style="font-family:sans-serif;font-size:12px;text-anchor:end;transform:translate(1199px, 108px) rotate(-45deg);" x="0" y="0">person</text><rect fill="#4B4CBF" height="12.5" width="12" x="1202.0" y="87.5" /><text style="font-family:sans-serif;font-size:12px;text-anchor:end;transform:translate(1214px, 108px) rotate(-45deg);" x="0" y="0">silver screen</text><rect fill="#4B4CBF" height="12.5" width="12" x="1217.0" y="87.5" /><text style="font-family:sans-serif;font-size:12px;text-anchor:end;transform:translate(1229px, 108px) rotate(-45deg);" x="0" y="0">screen door</text><rect fill="#4B4CBF" height="12.5" width="12" x="1232.0" y="87.5" /><text style="font-family:sans-serif;font-size:12px;text-anchor:end;transform:translate(1244px, 108px) rotate(-45deg);" x="0" y="0">grandstand</text><rect fill="#4B4CBF" height="12.5" width="12" x="1247.0" y="87.5" /><text style="font-family:sans-serif;font-size:12px;text-anchor:end;transform:translate(1259px, 108px) rotate(-45deg);" x="0" y="0">elevator door</text><rect fill="#4B4CBF" height="12.5" width="12" x="1262.0" y="87.5" /><text style="font-family:sans-serif;font-size:12px;text-anchor:end;transform:translate(1274px, 108px) rotate(-45deg);" x="0" y="0">stands</text><rect fill="#4B4CBF" height="12.5" width="12" x="1277.0" y="87.5" /><text style="font-family:sans-serif;font-size:12px;text-anchor:end;transform:translate(1289px, 108px) rotate(-45deg);" x="0" y="0">fence</text><rect fill="#4B4CBF" height="12.5" width="12" x="1292.0" y="87.5" /><text style="font-family:sans-serif;font-size:12px;text-anchor:end;transform:translate(1304px, 108px) rotate(-45deg);" x="0" y="0">signboard</text><rect fill="#4B4CBF" height="12.5" width="12" x="1307.0" y="87.5" /><text style="font-family:sans-serif;font-size:12px;text-anchor:end;transform:translate(1319px, 108px) rotate(-45deg);" x="0" y="0">sand</text><rect fill="#4B4CBF" height="12.5" width="12" x="1322.0" y="87.5" /><text style="font-family:sans-serif;font-size:12px;text-anchor:end;transform:translate(1334px, 108px) rotate(-45deg);" x="0" y="0">glass</text><rect fill="#4B4CBF" height="12.5" width="12" x="1337.0" y="87.5" /><text style="font-family:sans-serif;font-size:12px;text-anchor:end;transform:translate(1349px, 108px) rotate(-45deg);" x="0" y="0">windowpane</text><rect fill="#4B4CBF" height="12.5" width="12" x="1352.0" y="87.5" /><text style="font-family:sans-serif;font-size:12px;text-anchor:end;transform:translate(1364px, 108px) rotate(-45deg);" x="0" y="0">bookcase</text><rect fill="#4B4CBF" height="12.5" width="12" x="1367.0" y="87.5" /><text style="font-family:sans-serif;font-size:12px;text-anchor:end;transform:translate(1379px, 108px) rotate(-45deg);" x="0" y="0">acropolis</text><rect fill="#4B4CBF" height="12.5" width="12" x="1382.0" y="87.5" /><text style="font-family:sans-serif;font-size:12px;text-anchor:end;transform:translate(1394px, 108px) rotate(-45deg);" x="0" y="0">ruins</text><rect fill="#4B4CBF" height="12.5" width="12" x="1397.0" y="87.5" /><text style="font-family:sans-serif;font-size:12px;text-anchor:end;transform:translate(1409px, 108px) rotate(-45deg);" x="0" y="0">motorbike</text><rect fill="#4B4CBF" height="12.5" width="12" x="1412.0" y="87.5" /><text style="font-family:sans-serif;font-size:12px;text-anchor:end;transform:translate(1424px, 108px) rotate(-45deg);" x="0" y="0">patty</text><rect fill="#4B4CBF" height="12.5" width="12" x="1427.0" y="87.5" /><text style="font-family:sans-serif;font-size:12px;text-anchor:end;transform:translate(1439px, 108px) rotate(-45deg);" x="0" y="0">machine</text><rect fill="#4B4CBF" height="12.5" width="12" x="1442.0" y="87.5" /><text style="font-family:sans-serif;font-size:12px;text-anchor:end;transform:translate(1454px, 108px) rotate(-45deg);" x="0" y="0">booth</text><rect fill="#4B4CBF" height="12.5" width="12" x="1457.0" y="87.5" /><text style="font-family:sans-serif;font-size:12px;text-anchor:end;transform:translate(1469px, 108px) rotate(-45deg);" x="0" y="0">bench</text><rect fill="#4B4CBF" height="12.5" width="12" x="1472.0" y="87.5" /><text style="font-family:sans-serif;font-size:12px;text-anchor:end;transform:translate(1484px, 108px) rotate(-45deg);" x="0" y="0">grill</text><rect fill="#4B4CBF" height="12.5" width="12" x="1487.0" y="87.5" /><text style="font-family:sans-serif;font-size:12px;text-anchor:end;transform:translate(1499px, 108px) rotate(-45deg);" x="0" y="0">elephant</text><rect fill="#4B4CBF" height="12.5" width="12" x="1502.0" y="87.5" /><text style="font-family:sans-serif;font-size:12px;text-anchor:end;transform:translate(1514px, 108px) rotate(-45deg);" x="0" y="0">rack</text><rect fill="#4B4CBF" height="12.5" width="12" x="1517.0" y="87.5" /><text style="font-family:sans-serif;font-size:12px;text-anchor:end;transform:translate(1529px, 108px) rotate(-45deg);" x="0" y="0">excavator</text><rect fill="#4B4CBF" height="12.5" width="12" x="1532.0" y="87.5" /><text style="font-family:sans-serif;font-size:12px;text-anchor:end;transform:translate(1544px, 108px) rotate(-45deg);" x="0" y="0">track</text><rect fill="#4B4CBF" height="12.5" width="12" x="1547.0" y="87.5" /><text style="font-family:sans-serif;font-size:12px;text-anchor:end;transform:translate(1559px, 108px) rotate(-45deg);" x="0" y="0">wall</text><rect fill="#4B4CBF" height="12.5" width="12" x="1562.0" y="87.5" /><text style="font-family:sans-serif;font-size:12px;text-anchor:end;transform:translate(1574px, 108px) rotate(-45deg);" x="0" y="0">decoration</text><rect fill="#4B4CBF" height="12.5" width="12" x="1577.0" y="87.5" /><text style="font-family:sans-serif;font-size:12px;text-anchor:end;transform:translate(1589px, 108px) rotate(-45deg);" x="0" y="0">shelter</text><rect fill="#4B4CBF" height="12.5" width="12" x="1592.0" y="87.5" /><text style="font-family:sans-serif;font-size:12px;text-anchor:end;transform:translate(1604px, 108px) rotate(-45deg);" x="0" y="0">tunnel</text><rect fill="#4B4CBF" height="12.5" width="12" x="1607.0" y="87.5" /><text style="font-family:sans-serif;font-size:12px;text-anchor:end;transform:translate(1619px, 108px) rotate(-45deg);" x="0" y="0">engine</text><rect fill="#4B4CBF" height="12.5" width="12" x="1622.0" y="87.5" /><text style="font-family:sans-serif;font-size:12px;text-anchor:end;transform:translate(1634px, 108px) rotate(-45deg);" x="0" y="0">desk</text><rect fill="#4B4CBF" height="12.5" width="12" x="1637.0" y="87.5" /><text style="font-family:sans-serif;font-size:12px;text-anchor:end;transform:translate(1649px, 108px) rotate(-45deg);" x="0" y="0">net</text><rect fill="#4B4CBF" height="12.5" width="12" x="1652.0" y="87.5" /><text style="font-family:sans-serif;font-size:12px;text-anchor:end;transform:translate(1664px, 108px) rotate(-45deg);" x="0" y="0">television camera</text><rect fill="#4B4CBF" height="12.5" width="12" x="1667.0" y="87.5" /><text style="font-family:sans-serif;font-size:12px;text-anchor:end;transform:translate(1679px, 108px) rotate(-45deg);" x="0" y="0">ring</text><rect fill="#4B4CBF" height="12.5" width="12" x="1682.0" y="87.5" /><text style="font-family:sans-serif;font-size:12px;text-anchor:end;transform:translate(1694px, 108px) rotate(-45deg);" x="0" y="0">aircraft carrier</text><rect fill="#4B4CBF" height="12.5" width="12" x="1697.0" y="87.5" /><text style="font-family:sans-serif;font-size:12px;text-anchor:end;transform:translate(1709px, 108px) rotate(-45deg);" x="0" y="0">pulpit</text><rect fill="#4B4CBF" height="12.5" width="12" x="1712.0" y="87.5" /><text style="font-family:sans-serif;font-size:12px;text-anchor:end;transform:translate(1724px, 108px) rotate(-45deg);" x="0" y="0">mountain</text><rect fill="#4B4CBF" height="12.5" width="12" x="1727.0" y="87.5" /><text style="font-family:sans-serif;font-size:12px;text-anchor:end;transform:translate(1739px, 108px) rotate(-45deg);" x="0" y="0">vault</text><rect fill="#4B4CBF" height="12.5" width="12" x="1742.0" y="87.5" /><text style="font-family:sans-serif;font-size:12px;text-anchor:end;transform:translate(1754px, 108px) rotate(-45deg);" x="0" y="0">metal shutters</text><rect fill="#4B4CBF" height="12.5" width="12" x="1757.0" y="87.5" /><text style="font-family:sans-serif;font-size:12px;text-anchor:end;transform:translate(1769px, 108px) rotate(-45deg);" x="0" y="0">labyrinth</text><rect fill="#4B4CBF" height="12.5" width="12" x="1772.0" y="87.5" /><text style="font-family:sans-serif;font-size:12px;text-anchor:end;transform:translate(1784px, 108px) rotate(-45deg);" x="0" y="0">planks</text><rect fill="#4B4CBF" height="12.5" width="12" x="1787.0" y="87.5" /><text style="font-family:sans-serif;font-size:12px;text-anchor:end;transform:translate(1799px, 108px) rotate(-45deg);" x="0" y="0">hovel</text><rect fill="#4B4CBF" height="12.5" width="12" x="1802.0" y="87.5" /><text style="font-family:sans-serif;font-size:12px;text-anchor:end;transform:translate(1814px, 108px) rotate(-45deg);" x="0" y="0">skyscraper</text><rect fill="#4B4CBF" height="12.5" width="12" x="1817.0" y="87.5" /><text style="font-family:sans-serif;font-size:12px;text-anchor:end;transform:translate(1829px, 108px) rotate(-45deg);" x="0" y="0">cat</text><text style="font-family:sans-serif;font-size:15px;text-anchor:end;transform:translate(1829px, 3px) rotate(-90deg);" x="0" y="0">120 objects</text></svg>