<?xml version="1.0" standalone="no"?>
<!DOCTYPE svg PUBLIC "-//W3C//DTD SVG 1.1//EN"
"http://www.w3.org/Graphics/SVG/1.1/DTD/svg11.dtd">
<svg height="200" version="1.1" width="537.0" xmlns="http://www.w3.org/2000/svg"><text style="font-family:sans-serif;font-size:15px;text-anchor:end;alignment-baseline:hanging;transform:translate(29px, 95px);" x="0" y="0">1</text><text style="font-family:sans-serif;font-size:15px;text-anchor:end;alignment-baseline:hanging;transform:translate(29px, 50px);" x="0" y="0">10</text><text style="font-family:sans-serif;font-size:15px;text-anchor:end;alignment-baseline:hanging;transform:translate(29px, 0px);" x="0" y="0">20</text><text style="font-family:sans-serif;font-size:15px;text-anchor:middle;transform:translate(11px, 50px) rotate(-90deg)" x="0" y="0">units</text><rect fill="#B6B6F2" height="100.0" width="462.0" x="32" y="0.0" /><rect fill="#4B4CBF" height="100.0" width="12" x="32" y="0.0" /><text style="font-family:sans-serif;font-size:12px;text-anchor:end;transform:translate(44px, 108px) rotate(-45deg);" x="0" y="0">pool table</text><rect fill="#4B4CBF" height="70.0" width="12" x="47.0" y="30.0" /><text style="font-family:sans-serif;font-size:12px;text-anchor:end;transform:translate(59px, 108px) rotate(-45deg);" x="0" y="0">bed</text><rect fill="#4B4CBF" height="35.0" width="12" x="62.0" y="65.0" /><text style="font-family:sans-serif;font-size:12px;text-anchor:end;transform:translate(74px, 108px) rotate(-45deg);" x="0" y="0">tvmonitor</text><rect fill="#4B4CBF" height="35.0" width="12" x="77.0" y="65.0" /><text style="font-family:sans-serif;font-size:12px;text-anchor:end;transform:translate(89px, 108px) rotate(-45deg);" x="0" y="0">car</text><rect fill="#4B4CBF" height="35.0" width="12" x="92.0" y="65.0" /><text style="font-family:sans-serif;font-size:12px;text-anchor:end;transform:translate(104px, 108px) rotate(-45deg);" x="0" y="0">food</text><rect fill="#4B4CBF" height="25.0" width="12" x="107.0" y="75.0" /><text style="font-family:sans-serif;font-size:12px;text-anchor:end;transform:translate(119px, 108px) rotate(-45deg);" x="0" y="0">washer</text><rect fill="#4B4CBF" height="25.0" width="12" x="122.0" y="75.0" /><text style="font-family:sans-serif;font-size:12px;text-anchor:end;transform:translate(134px, 108px) rotate(-45deg);" x="0" y="0">stove</text><rect fill="#4B4CBF" height="25.0" width="12" x="137.0" y="75.0" /><text style="font-family:sans-serif;font-size:12px;text-anchor:end;transform:translate(149px, 108px) rotate(-45deg);" x="0" y="0">person</text><rect fill="#4B4CBF" height="25.0" width="12" x="152.0" y="75.0" /><text style="font-family:sans-serif;font-size:12px;text-anchor:end;transform:translate(164px, 108px) rotate(-45deg);" x="0" y="0">book</text><rect fill="#4B4CBF" height="20.0" width="12" x="167.0" y="80.0" /><text style="font-family:sans-serif;font-size:12px;text-anchor:end;transform:translate(179px, 108px) rotate(-45deg);" x="0" y="0">grass</text><rect fill="#4B4CBF" height="15.0" width="12" x="182.0" y="85.0" /><text style="font-family:sans-serif;font-size:12px;text-anchor:end;transform:translate(194px, 108px) rotate(-45deg);" x="0" y="0">bathtub</text><rect fill="#4B4CBF" height="15.0" width="12" x="197.0" y="85.0" /><text style="font-family:sans-serif;font-size:12px;text-anchor:end;transform:translate(209px, 108px) rotate(-45deg);" x="0" y="0">cradle</text><rect fill="#4B4CBF" height="10.0" width="12" x="212.0" y="90.0" /><text style="font-family:sans-serif;font-size:12px;text-anchor:end;transform:translate(224px, 108px) rotate(-45deg);" x="0" y="0">road</text><rect fill="#4B4CBF" height="10.0" width="12" x="227.0" y="90.0" /><text style="font-family:sans-serif;font-size:12px;text-anchor:end;transform:translate(239px, 108px) rotate(-45deg);" x="0" y="0">sky</text><rect fill="#4B4CBF" height="10.0" width="12" x="242.0" y="90.0" /><text style="font-family:sans-serif;font-size:12px;text-anchor:end;transform:translate(254px, 108px) rotate(-45deg);" x="0" y="0">bicycle</text><rect fill="#4B4CBF" height="5.0" width="12" x="257.0" y="95.0" /><text style="font-family:sans-serif;font-size:12px;text-anchor:end;transform:translate(269px, 108px) rotate(-45deg);" x="0" y="0">flower</text><rect fill="#4B4CBF" height="5.0" width="12" x="272.0" y="95.0" /><text style="font-family:sans-serif;font-size:12px;text-anchor:end;transform:translate(284px, 108px) rotate(-45deg);" x="0" y="0">plant</text><rect fill="#4B4CBF" height="5.0" width="12" x="287.0" y="95.0" /><text style="font-family:sans-serif;font-size:12px;text-anchor:end;transform:translate(299px, 108px) rotate(-45deg);" x="0" y="0">toilet</text><rect fill="#4B4CBF" height="5.0" width="12" x="302.0" y="95.0" /><text style="font-family:sans-serif;font-size:12px;text-anchor:end;transform:translate(314px, 108px) rotate(-45deg);" x="0" y="0">tree</text><rect fill="#4B4CBF" height="5.0" width="12" x="317.0" y="95.0" /><text style="font-family:sans-serif;font-size:12px;text-anchor:end;transform:translate(329px, 108px) rotate(-45deg);" x="0" y="0">sofa</text><rect fill="#4B4CBF" height="5.0" width="12" x="332.0" y="95.0" /><text style="font-family:sans-serif;font-size:12px;text-anchor:end;transform:translate(344px, 108px) rotate(-45deg);" x="0" y="0">sea</text><rect fill="#4B4CBF" height="5.0" width="12" x="347.0" y="95.0" /><text style="font-family:sans-serif;font-size:12px;text-anchor:end;transform:translate(359px, 108px) rotate(-45deg);" x="0" y="0">signboard</text><rect fill="#4B4CBF" height="5.0" width="12" x="362.0" y="95.0" /><text style="font-family:sans-serif;font-size:12px;text-anchor:end;transform:translate(374px, 108px) rotate(-45deg);" x="0" y="0">sidewalk</text><rect fill="#4B4CBF" height="5.0" width="12" x="377.0" y="95.0" /><text style="font-family:sans-serif;font-size:12px;text-anchor:end;transform:translate(389px, 108px) rotate(-45deg);" x="0" y="0">building</text><rect fill="#4B4CBF" height="5.0" width="12" x="392.0" y="95.0" /><text style="font-family:sans-serif;font-size:12px;text-anchor:end;transform:translate(404px, 108px) rotate(-45deg);" x="0" y="0">mountain</text><rect fill="#4B4CBF" height="5.0" width="12" x="407.0" y="95.0" /><text style="font-family:sans-serif;font-size:12px;text-anchor:end;transform:translate(419px, 108px) rotate(-45deg);" x="0" y="0">sink</text><rect fill="#4B4CBF" height="5.0" width="12" x="422.0" y="95.0" /><text style="font-family:sans-serif;font-size:12px;text-anchor:end;transform:translate(434px, 108px) rotate(-45deg);" x="0" y="0">case</text><rect fill="#4B4CBF" height="5.0" width="12" x="437.0" y="95.0" /><text style="font-family:sans-serif;font-size:12px;text-anchor:end;transform:translate(449px, 108px) rotate(-45deg);" x="0" y="0">kitchen island</text><rect fill="#4B4CBF" height="5.0" width="12" x="452.0" y="95.0" /><text style="font-family:sans-serif;font-size:12px;text-anchor:end;transform:translate(464px, 108px) rotate(-45deg);" x="0" y="0">train</text><rect fill="#4B4CBF" height="5.0" width="12" x="467.0" y="95.0" /><text style="font-family:sans-serif;font-size:12px;text-anchor:end;transform:translate(479px, 108px) rotate(-45deg);" x="0" y="0">chest of drawers</text><rect fill="#4B4CBF" height="5.0" width="12" x="482.0" y="95.0" /><text style="font-family:sans-serif;font-size:12px;text-anchor:end;transform:translate(494px, 108px) rotate(-45deg);" x="0" y="0">chair</text><text style="font-family:sans-serif;font-size:15px;text-anchor:end;transform:translate(494px, 3px) rotate(-90deg);" x="0" y="0">31 objects</text></svg>