<?xml version="1.0" standalone="no"?>
<!DOCTYPE svg PUBLIC "-//W3C//DTD SVG 1.1//EN"
"http://www.w3.org/Graphics/SVG/1.1/DTD/svg11.dtd">
<svg height="200" version="1.1" width="672.0" xmlns="http://www.w3.org/2000/svg"><text style="font-family:sans-serif;font-size:15px;text-anchor:end;alignment-baseline:hanging;transform:translate(29px, 95px);" x="0" y="0">1</text><text style="font-family:sans-serif;font-size:15px;text-anchor:end;alignment-baseline:hanging;transform:translate(29px, 50px);" x="0" y="0">12</text><text style="font-family:sans-serif;font-size:15px;text-anchor:end;alignment-baseline:hanging;transform:translate(29px, 0px);" x="0" y="0">24</text><text style="font-family:sans-serif;font-size:15px;text-anchor:middle;transform:translate(11px, 50px) rotate(-90deg)" x="0" y="0">units</text><rect fill="#B6B6F2" height="100.0" width="597.0" x="32" y="0.0" /><rect fill="#4B4CBF" height="100.0" width="12" x="32" y="0.0" /><text style="font-family:sans-serif;font-size:12px;text-anchor:end;transform:translate(44px, 108px) rotate(-45deg);" x="0" y="0">dog</text><rect fill="#4B4CBF" height="95.83333333333334" width="12" x="47.0" y="4.166666666666657" /><text style="font-family:sans-serif;font-size:12px;text-anchor:end;transform:translate(59px, 108px) rotate(-45deg);" x="0" y="0">airplane</text><rect fill="#4B4CBF" height="75.0" width="12" x="62.0" y="25.0" /><text style="font-family:sans-serif;font-size:12px;text-anchor:end;transform:translate(74px, 108px) rotate(-45deg);" x="0" y="0">bird</text><rect fill="#4B4CBF" height="50.0" width="12" x="77.0" y="50.0" /><text style="font-family:sans-serif;font-size:12px;text-anchor:end;transform:translate(89px, 108px) rotate(-45deg);" x="0" y="0">bottle</text><rect fill="#4B4CBF" height="50.0" width="12" x="92.0" y="50.0" /><text style="font-family:sans-serif;font-size:12px;text-anchor:end;transform:translate(104px, 108px) rotate(-45deg);" x="0" y="0">sheep</text><rect fill="#4B4CBF" height="45.833333333333336" width="12" x="107.0" y="54.166666666666664" /><text style="font-family:sans-serif;font-size:12px;text-anchor:end;transform:translate(119px, 108px) rotate(-45deg);" x="0" y="0">motorbike</text><rect fill="#4B4CBF" height="37.5" width="12" x="122.0" y="62.5" /><text style="font-family:sans-serif;font-size:12px;text-anchor:end;transform:translate(134px, 108px) rotate(-45deg);" x="0" y="0">cat</text><rect fill="#4B4CBF" height="29.166666666666668" width="12" x="137.0" y="70.83333333333333" /><text style="font-family:sans-serif;font-size:12px;text-anchor:end;transform:translate(149px, 108px) rotate(-45deg);" x="0" y="0">bicycle</text><rect fill="#4B4CBF" height="29.166666666666668" width="12" x="152.0" y="70.83333333333333" /><text style="font-family:sans-serif;font-size:12px;text-anchor:end;transform:translate(164px, 108px) rotate(-45deg);" x="0" y="0">horse</text><rect fill="#4B4CBF" height="25.0" width="12" x="167.0" y="75.0" /><text style="font-family:sans-serif;font-size:12px;text-anchor:end;transform:translate(179px, 108px) rotate(-45deg);" x="0" y="0">cow</text><rect fill="#4B4CBF" height="20.833333333333336" width="12" x="182.0" y="79.16666666666666" /><text style="font-family:sans-serif;font-size:12px;text-anchor:end;transform:translate(194px, 108px) rotate(-45deg);" x="0" y="0">boat</text><rect fill="#4B4CBF" height="16.666666666666668" width="12" x="197.0" y="83.33333333333333" /><text style="font-family:sans-serif;font-size:12px;text-anchor:end;transform:translate(209px, 108px) rotate(-45deg);" x="0" y="0">tvmonitor</text><rect fill="#4B4CBF" height="16.666666666666668" width="12" x="212.0" y="83.33333333333333" /><text style="font-family:sans-serif;font-size:12px;text-anchor:end;transform:translate(224px, 108px) rotate(-45deg);" x="0" y="0">car</text><rect fill="#4B4CBF" height="16.666666666666668" width="12" x="227.0" y="83.33333333333333" /><text style="font-family:sans-serif;font-size:12px;text-anchor:end;transform:translate(239px, 108px) rotate(-45deg);" x="0" y="0">ball</text><rect fill="#4B4CBF" height="16.666666666666668" width="12" x="242.0" y="83.33333333333333" /><text style="font-family:sans-serif;font-size:12px;text-anchor:end;transform:translate(254px, 108px) rotate(-45deg);" x="0" y="0">book</text><rect fill="#4B4CBF" height="12.5" width="12" x="257.0" y="87.5" /><text style="font-family:sans-serif;font-size:12px;text-anchor:end;transform:translate(269px, 108px) rotate(-45deg);" x="0" y="0">waterfall</text><rect fill="#4B4CBF" height="12.5" width="12" x="272.0" y="87.5" /><text style="font-family:sans-serif;font-size:12px;text-anchor:end;transform:translate(284px, 108px) rotate(-45deg);" x="0" y="0">train</text><rect fill="#4B4CBF" height="12.5" width="12" x="287.0" y="87.5" /><text style="font-family:sans-serif;font-size:12px;text-anchor:end;transform:translate(299px, 108px) rotate(-45deg);" x="0" y="0">mountain</text><rect fill="#4B4CBF" height="12.5" width="12" x="302.0" y="87.5" /><text style="font-family:sans-serif;font-size:12px;text-anchor:end;transform:translate(314px, 108px) rotate(-45deg);" x="0" y="0">sea</text><rect fill="#4B4CBF" height="12.5" width="12" x="317.0" y="87.5" /><text style="font-family:sans-serif;font-size:12px;text-anchor:end;transform:translate(329px, 108px) rotate(-45deg);" x="0" y="0">chair</text><rect fill="#4B4CBF" height="12.5" width="12" x="332.0" y="87.5" /><text style="font-family:sans-serif;font-size:12px;text-anchor:end;transform:translate(344px, 108px) rotate(-45deg);" x="0" y="0">bus</text><rect fill="#4B4CBF" height="12.5" width="12" x="347.0" y="87.5" /><text style="font-family:sans-serif;font-size:12px;text-anchor:end;transform:translate(359px, 108px) rotate(-45deg);" x="0" y="0">bathtub</text><rect fill="#4B4CBF" height="8.333333333333334" width="12" x="362.0" y="91.66666666666667" /><text style="font-family:sans-serif;font-size:12px;text-anchor:end;transform:translate(374px, 108px) rotate(-45deg);" x="0" y="0">pottedplant</text><rect fill="#4B4CBF" height="8.333333333333334" width="12" x="377.0" y="91.66666666666667" /><text style="font-family:sans-serif;font-size:12px;text-anchor:end;transform:translate(389px, 108px) rotate(-45deg);" x="0" y="0">snow</text><rect fill="#4B4CBF" height="8.333333333333334" width="12" x="392.0" y="91.66666666666667" /><text style="font-family:sans-serif;font-size:12px;text-anchor:end;transform:translate(404px, 108px) rotate(-45deg);" x="0" y="0">skyscraper</text><rect fill="#4B4CBF" height="8.333333333333334" width="12" x="407.0" y="91.66666666666667" /><text style="font-family:sans-serif;font-size:12px;text-anchor:end;transform:translate(419px, 108px) rotate(-45deg);" x="0" y="0">field</text><rect fill="#4B4CBF" height="8.333333333333334" width="12" x="422.0" y="91.66666666666667" /><text style="font-family:sans-serif;font-size:12px;text-anchor:end;transform:translate(434px, 108px) rotate(-45deg);" x="0" y="0">person</text><rect fill="#4B4CBF" height="8.333333333333334" width="12" x="437.0" y="91.66666666666667" /><text style="font-family:sans-serif;font-size:12px;text-anchor:end;transform:translate(449px, 108px) rotate(-45deg);" x="0" y="0">shelf</text><rect fill="#4B4CBF" height="8.333333333333334" width="12" x="452.0" y="91.66666666666667" /><text style="font-family:sans-serif;font-size:12px;text-anchor:end;transform:translate(464px, 108px) rotate(-45deg);" x="0" y="0">rock</text><rect fill="#4B4CBF" height="4.166666666666667" width="12" x="467.0" y="95.83333333333333" /><text style="font-family:sans-serif;font-size:12px;text-anchor:end;transform:translate(479px, 108px) rotate(-45deg);" x="0" y="0">road</text><rect fill="#4B4CBF" height="4.166666666666667" width="12" x="482.0" y="95.83333333333333" /><text style="font-family:sans-serif;font-size:12px;text-anchor:end;transform:translate(494px, 108px) rotate(-45deg);" x="0" y="0">flower</text><rect fill="#4B4CBF" height="4.166666666666667" width="12" x="497.0" y="95.83333333333333" /><text style="font-family:sans-serif;font-size:12px;text-anchor:end;transform:translate(509px, 108px) rotate(-45deg);" x="0" y="0">sand</text><rect fill="#4B4CBF" height="4.166666666666667" width="12" x="512.0" y="95.83333333333333" /><text style="font-family:sans-serif;font-size:12px;text-anchor:end;transform:translate(524px, 108px) rotate(-45deg);" x="0" y="0">ceiling</text><rect fill="#4B4CBF" height="4.166666666666667" width="12" x="527.0" y="95.83333333333333" /><text style="font-family:sans-serif;font-size:12px;text-anchor:end;transform:translate(539px, 108px) rotate(-45deg);" x="0" y="0">water</text><rect fill="#4B4CBF" height="4.166666666666667" width="12" x="542.0" y="95.83333333333333" /><text style="font-family:sans-serif;font-size:12px;text-anchor:end;transform:translate(554px, 108px) rotate(-45deg);" x="0" y="0">river</text><rect fill="#4B4CBF" height="4.166666666666667" width="12" x="557.0" y="95.83333333333333" /><text style="font-family:sans-serif;font-size:12px;text-anchor:end;transform:translate(569px, 108px) rotate(-45deg);" x="0" y="0">house</text><rect fill="#4B4CBF" height="4.166666666666667" width="12" x="572.0" y="95.83333333333333" /><text style="font-family:sans-serif;font-size:12px;text-anchor:end;transform:translate(584px, 108px) rotate(-45deg);" x="0" y="0">fence</text><rect fill="#4B4CBF" height="4.166666666666667" width="12" x="587.0" y="95.83333333333333" /><text style="font-family:sans-serif;font-size:12px;text-anchor:end;transform:translate(599px, 108px) rotate(-45deg);" x="0" y="0">carousel</text><rect fill="#4B4CBF" height="4.166666666666667" width="12" x="602.0" y="95.83333333333333" /><text style="font-family:sans-serif;font-size:12px;text-anchor:end;transform:translate(614px, 108px) rotate(-45deg);" x="0" y="0">door</text><rect fill="#4B4CBF" height="4.166666666666667" width="12" x="617.0" y="95.83333333333333" /><text style="font-family:sans-serif;font-size:12px;text-anchor:end;transform:translate(629px, 108px) rotate(-45deg);" x="0" y="0">bed</text><text style="font-family:sans-serif;font-size:15px;text-anchor:end;transform:translate(629px, 3px) rotate(-90deg);" x="0" y="0">40 objects</text></svg>