<?xml version="1.0" standalone="no"?>
<!DOCTYPE svg PUBLIC "-//W3C//DTD SVG 1.1//EN"
"http://www.w3.org/Graphics/SVG/1.1/DTD/svg11.dtd">
<svg height="200" version="1.1" width="1122.0" xmlns="http://www.w3.org/2000/svg"><text style="font-family:sans-serif;font-size:15px;text-anchor:end;alignment-baseline:hanging;transform:translate(29px, 95px);" x="0" y="0">1</text><text style="font-family:sans-serif;font-size:15px;text-anchor:end;alignment-baseline:hanging;transform:translate(29px, 50px);" x="0" y="0">10</text><text style="font-family:sans-serif;font-size:15px;text-anchor:end;alignment-baseline:hanging;transform:translate(29px, 0px);" x="0" y="0">20</text><text style="font-family:sans-serif;font-size:15px;text-anchor:middle;transform:translate(11px, 50px) rotate(-90deg)" x="0" y="0">units</text><rect fill="#B6B6F2" height="100.0" width="1047.0" x="32" y="0.0" /><rect fill="#4B4CBF" height="100.0" width="12" x="32" y="0.0" /><text style="font-family:sans-serif;font-size:12px;text-anchor:end;transform:translate(44px, 108px) rotate(-45deg);" x="0" y="0">pool table</text><rect fill="#4B4CBF" height="65.0" width="12" x="47.0" y="35.0" /><text style="font-family:sans-serif;font-size:12px;text-anchor:end;transform:translate(59px, 108px) rotate(-45deg);" x="0" y="0">train</text><rect fill="#4B4CBF" height="60.0" width="12" x="62.0" y="40.0" /><text style="font-family:sans-serif;font-size:12px;text-anchor:end;transform:translate(74px, 108px) rotate(-45deg);" x="0" y="0">bus</text><rect fill="#4B4CBF" height="45.0" width="12" x="77.0" y="55.0" /><text style="font-family:sans-serif;font-size:12px;text-anchor:end;transform:translate(89px, 108px) rotate(-45deg);" x="0" y="0">cradle</text><rect fill="#4B4CBF" height="40.0" width="12" x="92.0" y="60.0" /><text style="font-family:sans-serif;font-size:12px;text-anchor:end;transform:translate(104px, 108px) rotate(-45deg);" x="0" y="0">seat</text><rect fill="#4B4CBF" height="40.0" width="12" x="107.0" y="60.0" /><text style="font-family:sans-serif;font-size:12px;text-anchor:end;transform:translate(119px, 108px) rotate(-45deg);" x="0" y="0">mountain</text><rect fill="#4B4CBF" height="30.0" width="12" x="122.0" y="70.0" /><text style="font-family:sans-serif;font-size:12px;text-anchor:end;transform:translate(134px, 108px) rotate(-45deg);" x="0" y="0">horse</text><rect fill="#4B4CBF" height="30.0" width="12" x="137.0" y="70.0" /><text style="font-family:sans-serif;font-size:12px;text-anchor:end;transform:translate(149px, 108px) rotate(-45deg);" x="0" y="0">bed</text><rect fill="#4B4CBF" height="30.0" width="12" x="152.0" y="70.0" /><text style="font-family:sans-serif;font-size:12px;text-anchor:end;transform:translate(164px, 108px) rotate(-45deg);" x="0" y="0">airplane</text><rect fill="#4B4CBF" height="25.0" width="12" x="167.0" y="75.0" /><text style="font-family:sans-serif;font-size:12px;text-anchor:end;transform:translate(179px, 108px) rotate(-45deg);" x="0" y="0">water</text><rect fill="#4B4CBF" height="25.0" width="12" x="182.0" y="75.0" /><text style="font-family:sans-serif;font-size:12px;text-anchor:end;transform:translate(194px, 108px) rotate(-45deg);" x="0" y="0">car</text><rect fill="#4B4CBF" height="25.0" width="12" x="197.0" y="75.0" /><text style="font-family:sans-serif;font-size:12px;text-anchor:end;transform:translate(209px, 108px) rotate(-45deg);" x="0" y="0">washer</text><rect fill="#4B4CBF" height="25.0" width="12" x="212.0" y="75.0" /><text style="font-family:sans-serif;font-size:12px;text-anchor:end;transform:translate(224px, 108px) rotate(-45deg);" x="0" y="0">house</text><rect fill="#4B4CBF" height="25.0" width="12" x="227.0" y="75.0" /><text style="font-family:sans-serif;font-size:12px;text-anchor:end;transform:translate(239px, 108px) rotate(-45deg);" x="0" y="0">sink</text><rect fill="#4B4CBF" height="25.0" width="12" x="242.0" y="75.0" /><text style="font-family:sans-serif;font-size:12px;text-anchor:end;transform:translate(254px, 108px) rotate(-45deg);" x="0" y="0">case</text><rect fill="#4B4CBF" height="25.0" width="12" x="257.0" y="75.0" /><text style="font-family:sans-serif;font-size:12px;text-anchor:end;transform:translate(269px, 108px) rotate(-45deg);" x="0" y="0">toilet</text><rect fill="#4B4CBF" height="25.0" width="12" x="272.0" y="75.0" /><text style="font-family:sans-serif;font-size:12px;text-anchor:end;transform:translate(284px, 108px) rotate(-45deg);" x="0" y="0">motorbike</text><rect fill="#4B4CBF" height="25.0" width="12" x="287.0" y="75.0" /><text style="font-family:sans-serif;font-size:12px;text-anchor:end;transform:translate(299px, 108px) rotate(-45deg);" x="0" y="0">grandstand</text><rect fill="#4B4CBF" height="25.0" width="12" x="302.0" y="75.0" /><text style="font-family:sans-serif;font-size:12px;text-anchor:end;transform:translate(314px, 108px) rotate(-45deg);" x="0" y="0">shelf</text><rect fill="#4B4CBF" height="20.0" width="12" x="317.0" y="80.0" /><text style="font-family:sans-serif;font-size:12px;text-anchor:end;transform:translate(329px, 108px) rotate(-45deg);" x="0" y="0">grass</text><rect fill="#4B4CBF" height="20.0" width="12" x="332.0" y="80.0" /><text style="font-family:sans-serif;font-size:12px;text-anchor:end;transform:translate(344px, 108px) rotate(-45deg);" x="0" y="0">bridge</text><rect fill="#4B4CBF" height="15.0" width="12" x="347.0" y="85.0" /><text style="font-family:sans-serif;font-size:12px;text-anchor:end;transform:translate(359px, 108px) rotate(-45deg);" x="0" y="0">tvmonitor</text><rect fill="#4B4CBF" height="15.0" width="12" x="362.0" y="85.0" /><text style="font-family:sans-serif;font-size:12px;text-anchor:end;transform:translate(374px, 108px) rotate(-45deg);" x="0" y="0">bicycle</text><rect fill="#4B4CBF" height="15.0" width="12" x="377.0" y="85.0" /><text style="font-family:sans-serif;font-size:12px;text-anchor:end;transform:translate(389px, 108px) rotate(-45deg);" x="0" y="0">swimming pool</text><rect fill="#4B4CBF" height="15.0" width="12" x="392.0" y="85.0" /><text style="font-family:sans-serif;font-size:12px;text-anchor:end;transform:translate(404px, 108px) rotate(-45deg);" x="0" y="0">apparel</text><rect fill="#4B4CBF" height="15.0" width="12" x="407.0" y="85.0" /><text style="font-family:sans-serif;font-size:12px;text-anchor:end;transform:translate(419px, 108px) rotate(-45deg);" x="0" y="0">skyscraper</text><rect fill="#4B4CBF" height="15.0" width="12" x="422.0" y="85.0" /><text style="font-family:sans-serif;font-size:12px;text-anchor:end;transform:translate(434px, 108px) rotate(-45deg);" x="0" y="0">bathtub</text><rect fill="#4B4CBF" height="15.0" width="12" x="437.0" y="85.0" /><text style="font-family:sans-serif;font-size:12px;text-anchor:end;transform:translate(449px, 108px) rotate(-45deg);" x="0" y="0">pottedplant</text><rect fill="#4B4CBF" height="15.0" width="12" x="452.0" y="85.0" /><text style="font-family:sans-serif;font-size:12px;text-anchor:end;transform:translate(464px, 108px) rotate(-45deg);" x="0" y="0">person</text><rect fill="#4B4CBF" height="10.0" width="12" x="467.0" y="90.0" /><text style="font-family:sans-serif;font-size:12px;text-anchor:end;transform:translate(479px, 108px) rotate(-45deg);" x="0" y="0">sofa</text><rect fill="#4B4CBF" height="10.0" width="12" x="482.0" y="90.0" /><text style="font-family:sans-serif;font-size:12px;text-anchor:end;transform:translate(494px, 108px) rotate(-45deg);" x="0" y="0">bookcase</text><rect fill="#4B4CBF" height="10.0" width="12" x="497.0" y="90.0" /><text style="font-family:sans-serif;font-size:12px;text-anchor:end;transform:translate(509px, 108px) rotate(-45deg);" x="0" y="0">book</text><rect fill="#4B4CBF" height="10.0" width="12" x="512.0" y="90.0" /><text style="font-family:sans-serif;font-size:12px;text-anchor:end;transform:translate(524px, 108px) rotate(-45deg);" x="0" y="0">sea</text><rect fill="#4B4CBF" height="10.0" width="12" x="527.0" y="90.0" /><text style="font-family:sans-serif;font-size:12px;text-anchor:end;transform:translate(539px, 108px) rotate(-45deg);" x="0" y="0">computer</text><rect fill="#4B4CBF" height="10.0" width="12" x="542.0" y="90.0" /><text style="font-family:sans-serif;font-size:12px;text-anchor:end;transform:translate(554px, 108px) rotate(-45deg);" x="0" y="0">court</text><rect fill="#4B4CBF" height="10.0" width="12" x="557.0" y="90.0" /><text style="font-family:sans-serif;font-size:12px;text-anchor:end;transform:translate(569px, 108px) rotate(-45deg);" x="0" y="0">counter</text><rect fill="#4B4CBF" height="10.0" width="12" x="572.0" y="90.0" /><text style="font-family:sans-serif;font-size:12px;text-anchor:end;transform:translate(584px, 108px) rotate(-45deg);" x="0" y="0">plant</text><rect fill="#4B4CBF" height="10.0" width="12" x="587.0" y="90.0" /><text style="font-family:sans-serif;font-size:12px;text-anchor:end;transform:translate(599px, 108px) rotate(-45deg);" x="0" y="0">bench</text><rect fill="#4B4CBF" height="10.0" width="12" x="602.0" y="90.0" /><text style="font-family:sans-serif;font-size:12px;text-anchor:end;transform:translate(614px, 108px) rotate(-45deg);" x="0" y="0">carousel</text><rect fill="#4B4CBF" height="10.0" width="12" x="617.0" y="90.0" /><text style="font-family:sans-serif;font-size:12px;text-anchor:end;transform:translate(629px, 108px) rotate(-45deg);" x="0" y="0">bottle</text><rect fill="#4B4CBF" height="10.0" width="12" x="632.0" y="90.0" /><text style="font-family:sans-serif;font-size:12px;text-anchor:end;transform:translate(644px, 108px) rotate(-45deg);" x="0" y="0">playground</text><rect fill="#4B4CBF" height="10.0" width="12" x="647.0" y="90.0" /><text style="font-family:sans-serif;font-size:12px;text-anchor:end;transform:translate(659px, 108px) rotate(-45deg);" x="0" y="0">road</text><rect fill="#4B4CBF" height="5.0" width="12" x="662.0" y="95.0" /><text style="font-family:sans-serif;font-size:12px;text-anchor:end;transform:translate(674px, 108px) rotate(-45deg);" x="0" y="0">dog</text><rect fill="#4B4CBF" height="5.0" width="12" x="677.0" y="95.0" /><text style="font-family:sans-serif;font-size:12px;text-anchor:end;transform:translate(689px, 108px) rotate(-45deg);" x="0" y="0">stairway</text><rect fill="#4B4CBF" height="5.0" width="12" x="692.0" y="95.0" /><text style="font-family:sans-serif;font-size:12px;text-anchor:end;transform:translate(704px, 108px) rotate(-45deg);" x="0" y="0">runway</text><rect fill="#4B4CBF" height="5.0" width="12" x="707.0" y="95.0" /><text style="font-family:sans-serif;font-size:12px;text-anchor:end;transform:translate(719px, 108px) rotate(-45deg);" x="0" y="0">painting</text><rect fill="#4B4CBF" height="5.0" width="12" x="722.0" y="95.0" /><text style="font-family:sans-serif;font-size:12px;text-anchor:end;transform:translate(734px, 108px) rotate(-45deg);" x="0" y="0">track</text><rect fill="#4B4CBF" height="5.0" width="12" x="737.0" y="95.0" /><text style="font-family:sans-serif;font-size:12px;text-anchor:end;transform:translate(749px, 108px) rotate(-45deg);" x="0" y="0">table</text><rect fill="#4B4CBF" height="5.0" width="12" x="752.0" y="95.0" /><text style="font-family:sans-serif;font-size:12px;text-anchor:end;transform:translate(764px, 108px) rotate(-45deg);" x="0" y="0">flower</text><rect fill="#4B4CBF" height="5.0" width="12" x="767.0" y="95.0" /><text style="font-family:sans-serif;font-size:12px;text-anchor:end;transform:translate(779px, 108px) rotate(-45deg);" x="0" y="0">windowpane</text><rect fill="#4B4CBF" height="5.0" width="12" x="782.0" y="95.0" /><text style="font-family:sans-serif;font-size:12px;text-anchor:end;transform:translate(794px, 108px) rotate(-45deg);" x="0" y="0">boat</text><rect fill="#4B4CBF" height="5.0" width="12" x="797.0" y="95.0" /><text style="font-family:sans-serif;font-size:12px;text-anchor:end;transform:translate(809px, 108px) rotate(-45deg);" x="0" y="0">stove</text><rect fill="#4B4CBF" height="5.0" width="12" x="812.0" y="95.0" /><text style="font-family:sans-serif;font-size:12px;text-anchor:end;transform:translate(824px, 108px) rotate(-45deg);" x="0" y="0">platform</text><rect fill="#4B4CBF" height="5.0" width="12" x="827.0" y="95.0" /><text style="font-family:sans-serif;font-size:12px;text-anchor:end;transform:translate(839px, 108px) rotate(-45deg);" x="0" y="0">fountain</text><rect fill="#4B4CBF" height="5.0" width="12" x="842.0" y="95.0" /><text style="font-family:sans-serif;font-size:12px;text-anchor:end;transform:translate(854px, 108px) rotate(-45deg);" x="0" y="0">screen door</text><rect fill="#4B4CBF" height="5.0" width="12" x="857.0" y="95.0" /><text style="font-family:sans-serif;font-size:12px;text-anchor:end;transform:translate(869px, 108px) rotate(-45deg);" x="0" y="0">arcade machine</text><rect fill="#4B4CBF" height="5.0" width="12" x="872.0" y="95.0" /><text style="font-family:sans-serif;font-size:12px;text-anchor:end;transform:translate(884px, 108px) rotate(-45deg);" x="0" y="0">signboard</text><rect fill="#4B4CBF" height="5.0" width="12" x="887.0" y="95.0" /><text style="font-family:sans-serif;font-size:12px;text-anchor:end;transform:translate(899px, 108px) rotate(-45deg);" x="0" y="0">work surface</text><rect fill="#4B4CBF" height="5.0" width="12" x="902.0" y="95.0" /><text style="font-family:sans-serif;font-size:12px;text-anchor:end;transform:translate(914px, 108px) rotate(-45deg);" x="0" y="0">pitch</text><rect fill="#4B4CBF" height="5.0" width="12" x="917.0" y="95.0" /><text style="font-family:sans-serif;font-size:12px;text-anchor:end;transform:translate(929px, 108px) rotate(-45deg);" x="0" y="0">curtain</text><rect fill="#4B4CBF" height="5.0" width="12" x="932.0" y="95.0" /><text style="font-family:sans-serif;font-size:12px;text-anchor:end;transform:translate(944px, 108px) rotate(-45deg);" x="0" y="0">pillow</text><rect fill="#4B4CBF" height="5.0" width="12" x="947.0" y="95.0" /><text style="font-family:sans-serif;font-size:12px;text-anchor:end;transform:translate(959px, 108px) rotate(-45deg);" x="0" y="0">wardrobe</text><rect fill="#4B4CBF" height="5.0" width="12" x="962.0" y="95.0" /><text style="font-family:sans-serif;font-size:12px;text-anchor:end;transform:translate(974px, 108px) rotate(-45deg);" x="0" y="0">desk</text><rect fill="#4B4CBF" height="5.0" width="12" x="977.0" y="95.0" /><text style="font-family:sans-serif;font-size:12px;text-anchor:end;transform:translate(989px, 108px) rotate(-45deg);" x="0" y="0">snow</text><rect fill="#4B4CBF" height="5.0" width="12" x="992.0" y="95.0" /><text style="font-family:sans-serif;font-size:12px;text-anchor:end;transform:translate(1004px, 108px) rotate(-45deg);" x="0" y="0">chair</text><rect fill="#4B4CBF" height="5.0" width="12" x="1007.0" y="95.0" /><text style="font-family:sans-serif;font-size:12px;text-anchor:end;transform:translate(1019px, 108px) rotate(-45deg);" x="0" y="0">earth</text><rect fill="#4B4CBF" height="5.0" width="12" x="1022.0" y="95.0" /><text style="font-family:sans-serif;font-size:12px;text-anchor:end;transform:translate(1034px, 108px) rotate(-45deg);" x="0" y="0">ground</text><rect fill="#4B4CBF" height="5.0" width="12" x="1037.0" y="95.0" /><text style="font-family:sans-serif;font-size:12px;text-anchor:end;transform:translate(1049px, 108px) rotate(-45deg);" x="0" y="0">rubbish</text><rect fill="#4B4CBF" height="5.0" width="12" x="1052.0" y="95.0" /><text style="font-family:sans-serif;font-size:12px;text-anchor:end;transform:translate(1064px, 108px) rotate(-45deg);" x="0" y="0">plaything</text><rect fill="#4B4CBF" height="5.0" width="12" x="1067.0" y="95.0" /><text style="font-family:sans-serif;font-size:12px;text-anchor:end;transform:translate(1079px, 108px) rotate(-45deg);" x="0" y="0">food</text><text style="font-family:sans-serif;font-size:15px;text-anchor:end;transform:translate(1079px, 3px) rotate(-90deg);" x="0" y="0">70 objects</text></svg>